<?xml version="1.0" encoding="UTF-8"?>
<svg version="1.1" xmlns="http://www.w3.org/2000/svg" width="99" height="99">
<path d="M0 0 C3.44044829 1.87460323 5.78033755 3.94623054 7.828125 7.24609375 C8.3828125 9.90234375 8.3828125 9.90234375 8.703125 12.74609375 C9.51650057 17.89069422 10.62374657 19.14286205 14.828125 22.24609375 C17.5103603 27.26558231 18.86612337 31.57483731 18.828125 37.24609375 C19.3025 38.02984375 19.776875 38.81359375 20.265625 39.62109375 C22.17310161 42.82565446 22.38532122 45.57469156 22.828125 49.24609375 C23.14563721 48.56506592 23.46314941 47.88403809 23.7902832 47.18237305 C25.23369785 44.09626144 26.68702975 41.0149224 28.140625 37.93359375 C28.64013672 36.86173828 29.13964844 35.78988281 29.65429688 34.68554688 C30.14091797 33.65751953 30.62753906 32.62949219 31.12890625 31.5703125 C31.57403564 30.62244873 32.01916504 29.67458496 32.4777832 28.69799805 C34.99428193 24.12862601 38.03357072 22.25980655 42.828125 20.24609375 C44.49402031 20.19539259 46.16251306 20.18680926 47.828125 20.24609375 C50.10276567 34.79000836 43.57153086 45.73590198 36.828125 58.24609375 C37.6325 58.39046875 38.436875 58.53484375 39.265625 58.68359375 C41.828125 59.24609375 41.828125 59.24609375 42.828125 60.24609375 C43.2838212 65.48660008 43.2838212 65.48660008 41.703125 68.12109375 C39.00206414 69.74173026 36.92153508 69.50387792 33.828125 69.24609375 C32.343125 68.75109375 32.343125 68.75109375 30.828125 68.24609375 C27.47716395 70.56598986 24.65196272 73.31766944 21.828125 76.24609375 C22.158125 76.57609375 22.488125 76.90609375 22.828125 77.24609375 C23.265625 79.49609375 23.265625 79.49609375 22.828125 82.24609375 C17.8260076 87.62336996 12.73699445 88.98488052 5.5546875 89.46484375 C-4.80768362 89.73458009 -12.41960541 88.96531453 -20.421875 82.05859375 C-26.98052074 75.72717668 -32.21290479 70.24973694 -32.41015625 60.84375 C-32.44076172 58.6654391 -32.46525468 56.48703574 -32.484375 54.30859375 C-32.51337891 53.21095703 -32.54238281 52.11332031 -32.57226562 50.98242188 C-32.58064453 49.92603516 -32.58902344 48.86964844 -32.59765625 47.78125 C-32.61953003 46.33310913 -32.61953003 46.33310913 -32.6418457 44.85571289 C-32.03789305 41.5021285 -30.83262543 40.30777117 -28.171875 38.24609375 C-24.31060076 38.34262561 -22.06431382 39.78216438 -19.171875 42.24609375 C-18.841875 40.92609375 -18.511875 39.60609375 -18.171875 38.24609375 C-18.89375 38.16359375 -19.615625 38.08109375 -20.359375 37.99609375 C-23.83120517 37.07027237 -25.60381268 35.74474898 -28.171875 33.24609375 C-30.41721223 29.29002338 -30.58046348 25.74056708 -30.171875 21.24609375 C-28.984375 18.87109375 -28.984375 18.87109375 -27.171875 17.24609375 C-24.484375 16.49609375 -24.484375 16.49609375 -22.171875 16.24609375 C-22.15060547 15.26769531 -22.15060547 15.26769531 -22.12890625 14.26953125 C-21.77993137 7.87480241 -20.90492143 4.64106544 -16.171875 0.24609375 C-11.06592779 -1.45588865 -5.13960793 -1.78407254 0 0 Z " fill="#181E2D" transform="translate(43.171875,6.75390625)"/>
<path d="M0 0 C2.59965978 0.96558792 4.87845751 1.9183929 7.1875 3.46875 C10.61876912 5.33688541 14.0092979 6.0214847 17.8125 6.6875 C18.50537109 6.81705078 19.19824219 6.94660156 19.91210938 7.08007812 C21.60644764 7.39557559 23.30302158 7.69902647 25 8 C25.23331804 11.87397689 25.3747313 15.74614424 25.5 19.625 C25.60054687 21.26662109 25.60054687 21.26662109 25.703125 22.94140625 C25.89728858 30.95065412 25.89728858 30.95065412 23.25390625 34.04199219 C21.23299529 35.54488483 19.19750724 36.77712173 17 38 C16.34 38.66 15.68 39.32 15 40 C12.375 39.625 12.375 39.625 10 39 C10 38.01 10 37.02 10 36 C9.10667969 35.85498047 9.10667969 35.85498047 8.1953125 35.70703125 C5.542899 34.8527842 4.62528107 33.82724152 2.875 31.6875 C2.37742187 31.09324219 1.87984375 30.49898437 1.3671875 29.88671875 C-1.22604861 26.30805291 -2.25230984 23.68016762 -2.1953125 19.234375 C-2.18886719 18.34492187 -2.18242187 17.45546875 -2.17578125 16.5390625 C-2.15902344 15.61867188 -2.14226563 14.69828125 -2.125 13.75 C-2.11597656 12.81414063 -2.10695313 11.87828125 -2.09765625 10.9140625 C-2.07413636 8.60911343 -2.04126853 6.3046884 -2 4 C0.31 4.66 2.62 5.32 5 6 C4.175 5.38125 3.35 4.7625 2.5 4.125 C1.675 3.42375 0.85 2.7225 0 2 C0 1.34 0 0.68 0 0 Z " fill="#E0D6A5" transform="translate(15,48)"/>
<path d="M0 0 C3.875 1.875 3.875 1.875 5 3 C6.52519276 2.91062197 8.04681929 2.75462854 9.5625 2.5625 C10.38878906 2.46066406 11.21507813 2.35882812 12.06640625 2.25390625 C13.02353516 2.12822266 13.02353516 2.12822266 14 2 C14 1.34 14 0.68 14 0 C17.3125 -0.3125 17.3125 -0.3125 21 0 C22.875 2.375 22.875 2.375 24 5 C24.495 5.99 24.495 5.99 25 7 C25.43244838 10.8920354 25.29425531 12.54880853 23.125 15.875 C22.42375 16.57625 21.7225 17.2775 21 18 C20.34 18 19.68 18 19 18 C18.34 15.36 17.68 12.72 17 10 C16.01 10 15.02 10 14 10 C14.33 12.97 14.66 15.94 15 19 C11.37 19 7.74 19 4 19 C4 19.66 4 20.32 4 21 C7.96 21.99 11.92 22.98 16 24 C16 27.3 16 30.6 16 34 C16.99 33.505 16.99 33.505 18 33 C18.56567366 30.49487377 18.89362157 27.98910215 19.2421875 25.4453125 C20.17992538 22.41941604 21.28899233 21.55651011 24 20 C24.66 20 25.32 20 26 20 C27.18454029 24.51605986 27.97150511 28.27679959 25.6015625 32.48046875 C22.88788496 35.51056323 20.69859084 37.76279711 16.56640625 38.33984375 C12.60262629 37.98186691 10.35006762 37.23337842 7 35 C6.59156077 32.28796348 6.86663133 29.7562858 7 27 C6.33613281 27.02320312 5.67226563 27.04640625 4.98828125 27.0703125 C-3.78207381 27.24956063 -3.78207381 27.24956063 -8 25 C-7.36809392 19.2075276 -6.3298475 13.67401601 -5 8 C-1.37 8 2.26 8 6 8 C3.36 7.01 0.72 6.02 -2 5 C-1 1 -1 1 0 0 Z " fill="#E5D6A2" transform="translate(35,27)"/>
<path d="M0 0 C6.95913448 -0.50408218 11.30518028 -0.18394918 17 4 C19.79781337 7.08028491 20.49508572 9.53741365 21.0625 13.625 C21.52289064 17.79129663 21.52289064 17.79129663 24 21 C21 22 21 22 18 21 C18 21.66 18 22.32 18 23 C14.86501708 24.85776765 12.62528568 25.20140476 9 25 C8.87625 24.2575 8.7525 23.515 8.625 22.75 C7.83393647 19.13347172 7.83393647 19.13347172 6 16 C2.94091587 15.18415432 2.94091587 15.18415432 0 15 C0.99 15.99 1.98 16.98 3 18 C2.71640625 18.54269531 2.4328125 19.08539062 2.140625 19.64453125 C0.94326755 22.03839732 0.94326755 22.03839732 -0.078125 24.76171875 C-3.22203673 32.61101836 -3.22203673 32.61101836 -7 34.5 C-10 34 -10 34 -12.875 32 C-15.47535089 28.32891639 -15.66549077 26.40887637 -15 22 C-12 20 -12 20 -9.875 20.3125 C-8 21 -8 21 -7 22 C-6.95936168 23.66617115 -6.957279 25.33388095 -7 27 C-6.34 27 -5.68 27 -5 27 C-5.4640625 25.205625 -5.4640625 25.205625 -5.9375 23.375 C-6.20433594 22.27285156 -6.20433594 22.27285156 -6.4765625 21.1484375 C-6.89624856 19.42584546 -7.34901547 17.71132751 -7.8125 16 C-8.06731327 11.92298776 -7.01505299 8.55033145 -5 5 C-2 3 -2 3 1 3 C0.67 2.01 0.34 1.02 0 0 Z " fill="#44547E" transform="translate(31,6)"/>
<path d="M0 0 C1.05960938 0.56589844 2.11921875 1.13179687 3.2109375 1.71484375 C4.59895102 2.45574286 5.98697226 3.19662753 7.375 3.9375 C8.07367188 4.31068359 8.77234375 4.68386719 9.4921875 5.06835938 C13.22879122 7.06747892 13.22879122 7.06747892 17 9 C17.33 8.01 17.66 7.02 18 6 C18.99 6.33 19.98 6.66 21 7 C21.625 9.375 21.625 9.375 22 12 C21.34 12.66 20.68 13.32 20 14 C17.3984375 13.9765625 17.3984375 13.9765625 14.375 13.625 C13.37210938 13.51414062 12.36921875 13.40328125 11.3359375 13.2890625 C10.17964844 13.14597656 10.17964844 13.14597656 9 13 C8.67 13.99 8.34 14.98 8 16 C4.77626323 18.14915785 3.73296326 18.38286803 0 18 C-0.66 17.34 -1.32 16.68 -2 16 C-2.928125 16.33 -3.85625 16.66 -4.8125 17 C-9.84281064 18.46976154 -14.79794462 18.12844581 -20 18 C-20 13.38 -20 8.76 -20 4 C-18.02 4.66 -16.04 5.32 -14 6 C-10.91538029 6.50042146 -10.91538029 6.50042146 -8 6 C-6.62689293 4.70766393 -5.28965176 3.37562854 -4 2 C-2.68 2 -1.36 2 0 2 C0 1.34 0 0.68 0 0 Z " fill="#1A2134" transform="translate(62,61)"/>
<path d="M0 0 C0.66 0.33 1.32 0.66 2 1 C1.0925 1.7425 0.185 2.485 -0.75 3.25 C-3.3069423 5.37674584 -5.69110193 7.60229816 -8 10 C-7.505 10.495 -7.505 10.495 -7 11 C-6.5625 13.25 -6.5625 13.25 -7 16 C-12.0021174 21.37727621 -17.09113055 22.73878677 -24.2734375 23.21875 C-32.59621094 23.43539486 -40.97700518 23.35249568 -47.625 17.8125 C-48.07875 17.214375 -48.5325 16.61625 -49 16 C-48.195625 16.144375 -47.39125 16.28875 -46.5625 16.4375 C-42.51215359 15.94008904 -41.94278894 15.23549542 -39.0625 12.5625 C-33.21459967 7.62427305 -26.39008698 7.49492211 -19 8 C-18.01 8.66 -17.02 9.32 -16 10 C-16 10.99 -16 11.98 -16 13 C-12.75150023 11.27773504 -12.75150023 11.27773504 -12 8 C-12.66 8 -13.32 8 -14 8 C-14 7.34 -14 6.68 -14 6 C-12.948125 6.28875 -11.89625 6.5775 -10.8125 6.875 C-7.16733789 7.41336741 -7.16733789 7.41336741 -5.4921875 5.765625 C-4.26639872 4.22421396 -3.12937234 2.61338906 -2 1 C-1.34 0.67 -0.68 0.34 0 0 Z " fill="#0E1016" transform="translate(73,73)"/>
<path d="M0 0 C0 4.62 0 9.24 0 14 C-0.99 14.33 -1.98 14.66 -3 15 C-4.44451097 17.28767419 -4.44451097 17.28767419 -5.69921875 20.12890625 C-6.18583984 21.16337891 -6.67246094 22.19785156 -7.17382812 23.26367188 C-7.67333984 24.35228516 -8.17285156 25.44089844 -8.6875 26.5625 C-9.19861328 27.65498047 -9.70972656 28.74746094 -10.23632812 29.87304688 C-11.50015789 32.5778788 -12.75420885 35.28682429 -14 38 C-15.32 37.67 -16.64 37.34 -18 37 C-17.67 35.68 -17.34 34.36 -17 33 C-17.66 33 -18.32 33 -19 33 C-19.33 33.99 -19.66 34.98 -20 36 C-20.99 35.67 -21.98 35.34 -23 35 C-22.55138351 31.94940789 -21.89882897 29.80979847 -20.4375 27.0625 C-18.78536575 24.14891968 -18.78536575 24.14891968 -19.09765625 21.25390625 C-18.97890817 17.29722032 -17.74937586 14.34767638 -16 10.875 C-15.68893311 10.2547998 -15.37786621 9.63459961 -15.05737305 8.99560547 C-13.13200132 5.42408156 -11.438275 3.00251201 -7.8125 1.125 C-4 0 -4 0 0 0 Z " fill="#94B6A4" transform="translate(90,27)"/>
<path d="M0 0 C0.33 0 0.66 0 1 0 C3.27464067 14.54391461 -3.25659414 25.48980823 -10 38 C-9.195625 38.144375 -8.39125 38.28875 -7.5625 38.4375 C-5 39 -5 39 -4 40 C-3.5443038 45.24050633 -3.5443038 45.24050633 -5.125 47.875 C-7.84218824 49.50531294 -9.89652746 49.33015665 -13 49 C-13.66 48.34 -14.32 47.68 -15 47 C-12.69 47 -10.38 47 -8 47 C-8 46.01 -8 45.02 -8 44 C-8 43.01 -8 42.02 -8 41 C-8.66 41 -9.32 41 -10 41 C-10 41.99 -10 42.98 -10 44 C-13.6344969 42.21873667 -17.18884937 40.29802134 -20.75 38.375 C-21.35199219 38.05015625 -21.95398438 37.7253125 -22.57421875 37.390625 C-24.04977297 36.59429415 -25.52492686 35.79722161 -27 35 C-27 35.66 -27 36.32 -27 37 C-28.32 36.34 -29.64 35.68 -31 35 C-30.360625 34.505 -29.72125 34.01 -29.0625 33.5 C-26.18484731 30.01193613 -26.29769264 27.46538959 -26 23 C-26.66 23 -27.32 23 -28 23 C-27.34 21.68 -26.68 20.36 -26 19 C-25.34 22.3 -24.68 25.6 -24 29 C-22.02 24.545 -22.02 24.545 -20 20 C-19.34 20.33 -18.68 20.66 -18 21 C-18.60961263 25.14536586 -20.13718763 28.27437525 -22 32 C-22 32.99 -22 33.98 -22 35 C-21.34 35 -20.68 35 -20 35 C-19.67 34.34 -19.34 33.68 -19 33 C-18.34 33 -17.68 33 -17 33 C-17 34.32 -17 35.64 -17 37 C-16.01 37.33 -15.02 37.66 -14 38 C-13.67 36.824375 -13.34 35.64875 -13 34.4375 C-10.6218158 27.19853932 -6.68210832 20.63829031 -3 14 C-2.01 14 -1.02 14 0 14 C0 9.38 0 4.76 0 0 Z " fill="#131925" transform="translate(90,27)"/>
<path d="M0 0 C3.63 0.33 7.26 0.66 11 1 C10.01 1.495 10.01 1.495 9 2 C8.53248212 4.35599235 8.53248212 4.35599235 8.375 7.0625 C8.30023438 7.98160156 8.22546875 8.90070312 8.1484375 9.84765625 C8.09945312 10.55792969 8.05046875 11.26820312 8 12 C7.01 12.33 6.02 12.66 5 13 C11.93 15.97 11.93 15.97 19 19 C19.13020833 21.27864583 19.26041667 23.55729167 19.390625 25.8359375 C19.7922092 28.18838927 19.7922092 28.18838927 22.046875 29.2890625 C22.69140625 29.52367188 23.3359375 29.75828125 24 30 C22.56163249 29.88541307 21.12429034 29.75790884 19.6875 29.625 C18.88699219 29.55539063 18.08648437 29.48578125 17.26171875 29.4140625 C15 29 15 29 12 27 C11.59156077 24.28796348 11.86663133 21.7562858 12 19 C11.33613281 19.02320312 10.67226563 19.04640625 9.98828125 19.0703125 C1.21792619 19.24956063 1.21792619 19.24956063 -3 17 C-2.36809392 11.2075276 -1.3298475 5.67401601 0 0 Z " fill="#C4A675" transform="translate(30,35)"/>
<path d="M0 0 C0.99 0 1.98 0 3 0 C4.25664978 2.90600261 5 4.79604584 5 8 C7.64752004 5.42215154 9.94432065 3.08351902 12 0 C12.144375 1.0725 12.28875 2.145 12.4375 3.25 C12.89433176 6.78472598 12.89433176 6.78472598 13.625 9.3125 C14 11 14 11 13 13 C13.66 13 14.32 13 15 13 C15.83830986 19.70647887 15.83830986 19.70647887 13.546875 23.2421875 C10.87622695 26.30557791 8.39270678 28.73819548 5 31 C2.80859375 31.1171875 2.80859375 31.1171875 0.4375 30.875 C-0.74005859 30.77832031 -0.74005859 30.77832031 -1.94140625 30.6796875 C-4 30 -4 30 -5.27734375 27.9453125 C-5.63505859 26.98238281 -5.63505859 26.98238281 -6 26 C-5.28714844 26.15339844 -4.57429688 26.30679688 -3.83984375 26.46484375 C1.86751401 27.42801882 1.86751401 27.42801882 7.2890625 25.859375 C10.25200698 23.25003295 11.80320913 21.257275 12.421875 17.3046875 C12.43599298 14.82698153 12.31139014 12.45652222 12 10 C11.38125 10.495 10.7625 10.99 10.125 11.5 C8 13 8 13 6 13 C5.67 16.3 5.34 19.6 5 23 C4.01 23.33 3.02 23.66 2 24 C2 20.7 2 17.4 2 14 C0.948125 13.87625 -0.10375 13.7525 -1.1875 13.625 C-4.45958771 13.08859218 -7.00536076 12.36119965 -10 11 C-10 10.34 -10 9.68 -10 9 C-6.37 9 -2.74 9 1 9 C0.67 6.03 0.34 3.06 0 0 Z " fill="#282C37" transform="translate(49,37)"/>
<path d="M0 0 C0.33 0 0.66 0 1 0 C1.2335806 3.5405429 1.37479801 7.07910068 1.5 10.625 C1.60054687 12.12353516 1.60054687 12.12353516 1.703125 13.65234375 C1.89730794 20.98274989 1.89730794 20.98274989 -0.74609375 23.97949219 C-2.76825559 25.48331508 -4.81767678 26.74577219 -7 28 C-7.66 28.66 -8.32 29.32 -9 30 C-11.625 29.625 -11.625 29.625 -14 29 C-14.89316269 23.06390334 -14.97040422 17.93024803 -14 12 C-8.06 13.485 -8.06 13.485 -2 15 C-1.93941406 14.00097656 -1.87882812 13.00195312 -1.81640625 11.97265625 C-1.73261719 10.68230469 -1.64882813 9.39195313 -1.5625 8.0625 C-1.48128906 6.77472656 -1.40007813 5.48695312 -1.31640625 4.16015625 C-1 1 -1 1 0 0 Z " fill="#5E9EA7" transform="translate(39,58)"/>
<path d="M0 0 C2.59965978 0.96558792 4.87845751 1.9183929 7.1875 3.46875 C10.62109695 5.33815278 14.00932854 6.02075066 17.8125 6.6875 C20.184375 7.120625 22.55625 7.55375 25 8 C24.01 13.61 23.02 19.22 22 25 C18.7 24.34 15.4 23.68 12 23 C12.99 22.34 13.98 21.68 15 21 C14.175 20.29875 13.35 19.5975 12.5 18.875 C10 16 10 16 9.6875 12.6875 C9.790625 11.800625 9.89375 10.91375 10 10 C7.03 9.505 7.03 9.505 4 9 C4.66 8.34 5.32 7.68 6 7 C5.01 6.21625 4.02 5.4325 3 4.625 C2.01 3.75875 1.02 2.8925 0 2 C0 1.34 0 0.68 0 0 Z " fill="#ECDFAB" transform="translate(15,48)"/>
<path d="M0 0 C0.66 0 1.32 0 2 0 C1.42655063 2.86724686 1.1385485 3.8614515 -1 6 C0.32 6 1.64 6 3 6 C2.51053485 11.50648298 2.51053485 11.50648298 0.125 13.8125 C-5.12962301 16.74890698 -10.11948042 16.06918258 -16 16 C-16 11.38 -16 6.76 -16 2 C-14.02 2.66 -12.04 3.32 -10 4 C-6.91538029 4.50042146 -6.91538029 4.50042146 -4 4 C-1.74934898 2.08333079 -1.74934898 2.08333079 0 0 Z " fill="#465782" transform="translate(58,63)"/>
<path d="M0 0 C4.80336309 0.11741554 8.73332047 0.3153872 12.5625 3.4375 C15 6 15 6 15 8 C15.66 8 16.32 8 17 8 C17 9.98 17 11.96 17 14 C16.01 14.33 15.02 14.66 14 15 C13.54625 13.865625 13.0925 12.73125 12.625 11.5625 C11.42904194 7.95278308 11.42904194 7.95278308 9 7 C9.495 7.886875 9.99 8.77375 10.5 9.6875 C11.94378674 12.87586238 12.30159922 14.58187546 12 18 C10.68 18 9.36 18 8 18 C7.71125 17.05125 7.4225 16.1025 7.125 15.125 C4.65162738 11.48768733 3.94871195 11.42065039 -0.1875 10.625 C-1.78818595 10.39142351 -3.39185505 10.17499514 -5 10 C-3.75023244 6.34683329 -3.32901247 5.21934164 0 3 C0 2.01 0 1.02 0 0 Z " fill="#4691A8" transform="translate(33,8)"/>
<path d="M0 0 C-1.65 4.62 -3.3 9.24 -5 14 C-5.66 14 -6.32 14 -7 14 C-7 14.99 -7 15.98 -7 17 C-7.66 17 -8.32 17 -9 17 C-9.33 18.98 -9.66 20.96 -10 23 C-10.99 22.67 -11.98 22.34 -13 22 C-12.649375 21.236875 -12.29875 20.47375 -11.9375 19.6875 C-10.67639116 16.95240621 -10.67639116 16.95240621 -12 14 C-12.66 15.32 -13.32 16.64 -14 18 C-14.66 18 -15.32 18 -16 18 C-16 18.66 -16 19.32 -16 20 C-16.66 20 -17.32 20 -18 20 C-17.36289707 15.93753191 -16.08222569 12.58166955 -14.3125 8.875 C-13.59513672 7.32425781 -13.59513672 7.32425781 -12.86328125 5.7421875 C-9.42210082 0.67780875 -5.95362242 0 0 0 Z " fill="#C3DDB7" transform="translate(89,28)"/>
<path d="M0 0 C0.66 0.33 1.32 0.66 2 1 C1.47731534 3.76276177 0.89130413 6.3260876 0 9 C-0.144375 10.11375 -0.28875 11.2275 -0.4375 12.375 C-0.93493922 15.58071941 -1.66678852 18.06693474 -3 21 C-2.01 20.67 -1.02 20.34 0 20 C-0.33 21.32 -0.66 22.64 -1 24 C-2.32 23.67 -3.64 23.34 -5 23 C-4.67 21.68 -4.34 20.36 -4 19 C-4.66 19 -5.32 19 -6 19 C-6.33 19.99 -6.66 20.98 -7 22 C-7.99 21.67 -8.98 21.34 -10 21 C-9.37183502 17.05050296 -8.1354471 13.80107972 -6.4375 10.1875 C-5.98246094 9.21167969 -5.52742188 8.23585938 -5.05859375 7.23046875 C-4.70925781 6.49441406 -4.35992187 5.75835937 -4 5 C-3.34 5 -2.68 5 -2 5 C-1.34 3.35 -0.68 1.7 0 0 Z " fill="#90B09F" transform="translate(77,41)"/>
<path d="M0 0 C3.3125 0.1875 3.3125 0.1875 7 1 C9.34885769 3.87924492 10 5.27472933 10 9 C8.35 8.67 6.7 8.34 5 8 C4.67 9.32 4.34 10.64 4 12 C7.3 12.66 10.6 13.32 14 14 C10.4513865 16.36574234 9.4235475 16.10865265 5.3125 15.625 C3.82169922 15.45871094 3.82169922 15.45871094 2.30078125 15.2890625 C1.54152344 15.19367187 0.78226563 15.09828125 0 15 C0 16.32 0 17.64 0 19 C-0.99 19 -1.98 19 -3 19 C-2.57476184 17.39253944 -2.13429874 15.78910164 -1.6875 14.1875 C-1.44386719 13.29417969 -1.20023438 12.40085937 -0.94921875 11.48046875 C0.0200819 8.94752262 0.95009604 7.7283504 3 6 C2.5359375 5.071875 2.5359375 5.071875 2.0625 4.125 C1.375 2.75 0.6875 1.375 0 0 Z " fill="#262B3C" transform="translate(30,20)"/>
<path d="M0 0 C2.97 0.99 5.94 1.98 9 3 C9 6.96 9 10.92 9 15 C4 13 4 13 0 11 C0 7.37 0 3.74 0 0 Z " fill="#4A98AC" transform="translate(15,55)"/>
<path d="M0 0 C3.875 1.875 3.875 1.875 5 3 C6.52519276 2.91062197 8.04681929 2.75462854 9.5625 2.5625 C10.38878906 2.46066406 11.21507812 2.35882812 12.06640625 2.25390625 C12.70449219 2.17011719 13.34257813 2.08632813 14 2 C14 1.34 14 0.68 14 0 C17.3125 -0.3125 17.3125 -0.3125 21 0 C23.62072211 3.05750913 24.43681437 6.05770057 25 10 C24.67 9.34 24.34 8.68 24 8 C22.02111039 7.27306096 20.02045442 6.60183749 18 6 C18.33 4.68 18.66 3.36 19 2 C18.29875 2.66 17.5975 3.32 16.875 4 C11.74296732 7.53761476 4.93119464 6.29249727 -1 6 C-1.625 4.125 -1.625 4.125 -2 2 C-1.34 1.34 -0.68 0.68 0 0 Z " fill="#BA9F74" transform="translate(35,27)"/>
<path d="M0 0 C6.95913448 -0.50408218 11.30518028 -0.18394918 17 4 C19.79781337 7.08028491 20.49508572 9.53741365 21.0625 13.625 C21.52289064 17.79129663 21.52289064 17.79129663 24 21 C21 22 21 22 18 21 C18 21.66 18 22.32 18 23 C17.34 23 16.68 23 16 23 C16.82187261 18.61667943 17.90154282 14.32059823 19 10 C18.34 10 17.68 10 17 10 C16.4225 9.21625 15.845 8.4325 15.25 7.625 C12.58583984 4.51681315 10.95876296 3.87092785 7 3 C3.74955291 2.83201531 3.74955291 2.83201531 1 3 C0.67 2.01 0.34 1.02 0 0 Z " fill="#3A4A6D" transform="translate(31,6)"/>
<path d="M0 0 C0.33 0 0.66 0 1 0 C1.2335806 3.5405429 1.37479801 7.07910068 1.5 10.625 C1.56703125 11.62402344 1.6340625 12.62304688 1.703125 13.65234375 C1.89621161 20.9413631 1.89621161 20.9413631 -0.67578125 23.97949219 C-3.90546295 26.44369738 -7.36005867 28.21994995 -11 30 C-10.36771484 29.34644531 -10.36771484 29.34644531 -9.72265625 28.6796875 C-6.30140735 24.9605887 -4 22.30579589 -4 17 C-4.66 16.34 -5.32 15.68 -6 15 C-4.68 15 -3.36 15 -2 15 C-1.93941406 14.00097656 -1.87882812 13.00195312 -1.81640625 11.97265625 C-1.73261719 10.68230469 -1.64882813 9.39195313 -1.5625 8.0625 C-1.48128906 6.77472656 -1.40007813 5.48695312 -1.31640625 4.16015625 C-1 1 -1 1 0 0 Z " fill="#3F545C" transform="translate(39,58)"/>
<path d="M0 0 C2.59965978 0.96558792 4.87845751 1.9183929 7.1875 3.46875 C10.61876912 5.33688541 14.0092979 6.0214847 17.8125 6.6875 C18.50537109 6.81705078 19.19824219 6.94660156 19.91210938 7.08007812 C21.60644764 7.39557559 23.30302158 7.69902647 25 8 C24.34 11.3 23.68 14.6 23 18 C21 16 21 16 20.875 13.375 C20.91625 12.59125 20.9575 11.8075 21 11 C20.3709375 10.90203125 19.741875 10.8040625 19.09375 10.703125 C11.96246215 9.45729761 4.88282537 7.71902788 0 2 C0 1.34 0 0.68 0 0 Z " fill="#F2F2F0" transform="translate(15,48)"/>
<path d="M0 0 C3.04718178 0.33857575 4.7747603 0.83107022 7.25 2.6875 C9.352076 5.46524329 9.54582858 7.59371437 10 11 C10.66 11.33 11.32 11.66 12 12 C11.34 13.98 10.68 15.96 10 18 C7.69 18.33 5.38 18.66 3 19 C3.33 17.35 3.66 15.7 4 14 C4.99 14 5.98 14 7 14 C6.855625 12.741875 6.71125 11.48375 6.5625 10.1875 C6.48128906 9.47980469 6.40007813 8.77210937 6.31640625 8.04296875 C6.02829265 5.80603607 6.02829265 5.80603607 5 3 C2.49552484 1.78130071 2.49552484 1.78130071 0 1 C0 0.67 0 0.34 0 0 Z " fill="#485F88" transform="translate(37,12)"/>
<path d="M0 0 C0.72039596 3.3727629 1.23715261 6.54811204 1 10 C-0.75350616 12.45490862 -2.37211409 13.39109026 -5 15 C-4.98839844 14.36191406 -4.97679687 13.72382812 -4.96484375 13.06640625 C-4.95582031 12.24011719 -4.94679687 11.41382813 -4.9375 10.5625 C-4.92009766 9.32693359 -4.92009766 9.32693359 -4.90234375 8.06640625 C-4.76732652 6.00836062 -4.76732652 6.00836062 -6 5 C-6 4.34 -6 3.68 -6 3 C-2.53846154 0 -2.53846154 0 0 0 Z " fill="#C8AF7F" transform="translate(61,47)"/>
<path d="M0 0 C1.05960938 0.56589844 2.11921875 1.13179687 3.2109375 1.71484375 C4.59895102 2.45574286 5.98697226 3.19662753 7.375 3.9375 C8.42300781 4.49727539 8.42300781 4.49727539 9.4921875 5.06835938 C13.22879122 7.06747892 13.22879122 7.06747892 17 9 C17.33 8.01 17.66 7.02 18 6 C18.99 6.33 19.98 6.66 21 7 C20.67 8.65 20.34 10.3 20 12 C15.5334618 11.36070541 11.75653214 9.6699853 7.75 7.6875 C7.11320312 7.39166016 6.47640625 7.09582031 5.8203125 6.79101562 C3.984375 5.88671875 3.984375 5.88671875 1 4 C0.31347656 1.88208008 0.31347656 1.88208008 0 0 Z " fill="#3F6283" transform="translate(62,61)"/>
<path d="M0 0 C0.66 0 1.32 0 2 0 C0.50671618 4.77702237 -1.35185173 9.27366883 -3.4375 13.8125 C-3.73720703 14.49248047 -4.03691406 15.17246094 -4.34570312 15.87304688 C-5.14938716 17.62162624 -6.06788198 19.3163748 -7 21 C-7.99 21.33 -8.98 21.66 -10 22 C-7.707015 14.04199322 -4.05100513 7.18082279 0 0 Z " fill="#2B3541" transform="translate(87,41)"/>
<path d="M0 0 C0.66 0.66 1.32 1.32 2 2 C4.57061311 2.64767793 4.57061311 2.64767793 7 3 C6.67 3.66 6.34 4.32 6 5 C1.25 4.125 1.25 4.125 -1 3 C-1 3.66 -1 4.32 -1 5 C-0.34 5 0.32 5 1 5 C1.33 6.65 1.66 8.3 2 10 C0.35 10 -1.3 10 -3 10 C-3.33 9.01 -3.66 8.02 -4 7 C-4.66 6.67 -5.32 6.34 -6 6 C-5.25 3.5625 -5.25 3.5625 -4 1 C-2 0.0625 -2 0.0625 0 0 Z " fill="#171D2F" transform="translate(60,76)"/>
<path d="M0 0 C0.66 0 1.32 0 2 0 C2.33 0.66 2.66 1.32 3 2 C5.02463255 2.65213292 5.02463255 2.65213292 7 3 C6.34 4.32 5.68 5.64 5 7 C3.68 7 2.36 7 1 7 C1.33 7.99 1.66 8.98 2 10 C0.68 10.33 -0.64 10.66 -2 11 C-2.33 10.01 -2.66 9.02 -3 8 C-2.34 7.01 -1.68 6.02 -1 5 C-0.61500109 3.34450469 -0.27206865 1.6777567 0 0 Z " fill="#4B4E5D" transform="translate(64,68)"/>
<path d="M0 0 C0.66 0 1.32 0 2 0 C1.65111224 2.52943628 1.18872953 3.7961721 -0.5625 5.6875 C-3.96088958 7.51740208 -7.15204272 8.03047887 -11 8 C-14 7.0625 -14 7.0625 -16 6 C-15.67 4.68 -15.34 3.36 -15 2 C-13.948125 2.495 -13.948125 2.495 -12.875 3 C-9.617944 4.13288904 -7.42302438 4.43698184 -4 4 C-1.74934898 2.08333079 -1.74934898 2.08333079 0 0 Z " fill="#41899E" transform="translate(58,63)"/>
<path d="M0 0 C0.66 0.33 1.32 0.66 2 1 C1.67 1.33 1.34 1.66 1 2 C0.79224439 3.66204487 0.63281745 5.33029491 0.5 7 C0.11111111 11.88888889 0.11111111 11.88888889 -1 13 C-3.5 13.125 -3.5 13.125 -6 13 C-7 12 -7 12 -7.09765625 9.93359375 C-7.08605469 9.10988281 -7.07445312 8.28617188 -7.0625 7.4375 C-7.05347656 6.61121094 -7.04445312 5.78492188 -7.03515625 4.93359375 C-7.02355469 4.29550781 -7.01195312 3.65742187 -7 3 C-6.67 3 -6.34 3 -6 3 C-5.67 5.31 -5.34 7.62 -5 10 C-4.34 9.67 -3.68 9.34 -3 9 C-2.61004898 7.13507598 -2.61004898 7.13507598 -2.5 5 C-2.34375 2.8125 -2.34375 2.8125 -2 1 C-1.34 0.67 -0.68 0.34 0 0 Z " fill="#DBCD9D" transform="translate(56,51)"/>
<path d="M0 0 C3.3 0.99 6.6 1.98 10 3 C10 3.33 10 3.66 10 4 C4.25 4.125 4.25 4.125 2 3 C2.01160156 3.64066406 2.02320313 4.28132813 2.03515625 4.94140625 C2.08883119 10.08653222 1.88169578 14.93024924 1 20 C0.67 20 0.34 20 0 20 C0 13.4 0 6.8 0 0 Z " fill="#9EA891" transform="translate(13,52)"/>
<path d="M0 0 C1.9535973 2.93039595 2.25328562 3.7626951 2.5 7.0625 C2.59161885 10.99988402 2.59161885 10.99988402 5 13 C2 14 2 14 -1 13 C-1 13.66 -1 14.32 -1 15 C-1.66 15 -2.32 15 -3 15 C-2 10 -1 5 0 0 Z " fill="#272B39" transform="translate(50,14)"/>
<path d="M0 0 C0.66 0 1.32 0 2 0 C2.40214229 6.16618181 0.96818336 11.17745757 -1 17 C-1.66 17 -2.32 17 -3 17 C-2.36934845 11.2190275 -1.34844868 5.6556294 0 0 Z " fill="#C4B68C" transform="translate(30,35)"/>
<path d="M0 0 C3.3125 0.1875 3.3125 0.1875 7 1 C9.34885769 3.87924492 10 5.27472933 10 9 C7.525 8.01 7.525 8.01 5 7 C5 6.01 5 5.02 5 4 C4.360625 3.71125 3.72125 3.4225 3.0625 3.125 C1 2 1 2 0 0 Z " fill="#1B2235" transform="translate(30,20)"/>
<path d="M0 0 C0.33 0 0.66 0 1 0 C1 6.93 1 13.86 1 21 C0.67 21 0.34 21 0 21 C0 18.03 0 15.06 0 12 C-0.66 12 -1.32 12 -2 12 C-1.85962479 10.18706911 -1.71255111 8.3746557 -1.5625 6.5625 C-1.48128906 5.55316406 -1.40007813 4.54382812 -1.31640625 3.50390625 C-1 1 -1 1 0 0 Z " fill="#5CA2B3" transform="translate(39,58)"/>
<path d="M0 0 C1.29862143 2.59724285 1.52427843 5.1456706 2 8 C2.33 8.66 2.66 9.32 3 10 C3.039992 11.99960012 3.04346799 14.00047242 3 16 C2.34 16 1.68 16 1 16 C0.731875 15.05125 0.46375 14.1025 0.1875 13.125 C-0.74986588 9.74732727 -0.74986588 9.74732727 -4 8 C-3.34 7.34 -2.68 6.68 -2 6 C-1.28591666 4.01643517 -0.61382258 2.01684563 0 0 Z " fill="#192034" transform="translate(23,17)"/>
<path d="M0 0 C0.66 0 1.32 0 2 0 C1.44894091 3.9492568 0.61064629 7.34920174 -1 11 C-0.01 10.67 0.98 10.34 2 10 C1.67 11.32 1.34 12.64 1 14 C-0.32 13.67 -1.64 13.34 -3 13 C-3.38281159 7.76824163 -2.21854707 4.62197306 0 0 Z " fill="#7A9D95" transform="translate(75,51)"/>
<path d="M0 0 C3.60236433 1.33802104 6.7314358 2.98857588 10 5 C11.32608822 5.68096422 12.65686601 6.35330586 14 7 C13.34 7 12.68 7 12 7 C11.67 7.66 11.34 8.32 11 9 C9.72549553 8.40361667 8.45553123 7.79752584 7.1875 7.1875 C6.12595703 6.68283203 6.12595703 6.68283203 5.04296875 6.16796875 C2.96195141 4.97824756 1.53063798 3.83966269 0 2 C0 1.34 0 0.68 0 0 Z " fill="#E0E1E3" transform="translate(15,48)"/>
<path d="M0 0 C0.66 0.33 1.32 0.66 2 1 C-1.75 4.875 -1.75 4.875 -4 6 C-3.67 9.63 -3.34 13.26 -3 17 C-5.73732398 14.26267602 -5.97127858 12.39491957 -6.25 8.5625 C-5.98846605 4.83564127 -5.64677375 3.54874509 -3 1 C-2.01 0.67 -1.02 0.34 0 0 Z " fill="#0F1421" transform="translate(19,23)"/>
<path d="M0 0 C-0.53069061 3.82097239 -1.49701566 6.06171403 -4 9 C-4.33 7.35 -4.66 5.7 -5 4 C-5.99 4.33 -6.98 4.66 -8 5 C-8 4.34 -8 3.68 -8 3 C-2.25 0 -2.25 0 0 0 Z " fill="#AAC3A5" transform="translate(86,28)"/>
<path d="M0 0 C3.34098676 2.22732451 3.90203779 3.24862913 5 7 C4.67 7.99 4.34 8.98 4 10 C4 9.34 4 8.68 4 8 C2.02 7.34 0.04 6.68 -2 6 C-2 5.34 -2 4.68 -2 4 C-1.34 4 -0.68 4 0 4 C0 2.68 0 1.36 0 0 Z " fill="#937C57" transform="translate(55,27)"/>
<path d="M0 0 C0.99 0 1.98 0 3 0 C3 0.66 3 1.32 3 2 C3.66 2 4.32 2 5 2 C4.67 4.64 4.34 7.28 4 10 C0 4 0 4 0 0 Z " fill="#CDB17E" transform="translate(19,69)"/>
<path d="M0 0 C0.99 0.33 1.98 0.66 3 1 C1.625 3.5 1.625 3.5 0 6 C-0.66 6 -1.32 6 -2 6 C-2 6.66 -2 7.32 -2 8 C-2.66 8 -3.32 8 -4 8 C-3.50168276 4.31245243 -2.89932357 2.39509338 0 0 Z " fill="#B1C9A7" transform="translate(75,40)"/>
<path d="M0 0 C2.31 1.98 4.62 3.96 7 6 C4 7 4 7 0.8125 5.5625 C-0.115625 5.046875 -1.04375 4.53125 -2 4 C-1.34 2.68 -0.68 1.36 0 0 Z " fill="#272C3B" transform="translate(14,48)"/>
<path d="M0 0 C0.33 0.99 0.66 1.98 1 3 C-0.65 4.65 -2.3 6.3 -4 8 C-4.66 7.67 -5.32 7.34 -6 7 C-6 6.01 -6 5.02 -6 4 C-4.7934375 3.566875 -4.7934375 3.566875 -3.5625 3.125 C-0.8673532 2.26737432 -0.8673532 2.26737432 0 0 Z " fill="#2A2C39" transform="translate(71,71)"/>
<path d="M0 0 C0.144375 0.639375 0.28875 1.27875 0.4375 1.9375 C0.81007181 3.97545146 0.81007181 3.97545146 2 5 C2.04063832 6.66617115 2.042721 8.33388095 2 10 C1.34 9.01 0.68 8.02 0 7 C-2.05925139 6.27617533 -2.05925139 6.27617533 -4 6 C-3.525625 5.566875 -3.05125 5.13375 -2.5625 4.6875 C-0.76313043 2.97690387 -0.76313043 2.97690387 0 0 Z " fill="#23354A" transform="translate(60,63)"/>
<path d="M0 0 C1.98 0.495 1.98 0.495 4 1 C3.34 2.32 2.68 3.64 2 5 C1.01 4.67 0.02 4.34 -1 4 C-0.67 2.68 -0.34 1.36 0 0 Z " fill="#B0956C" transform="translate(67,70)"/>
<path d="M0 0 C1.98 1.65 3.96 3.3 6 5 C2.25 6.125 2.25 6.125 0 5 C0 3.35 0 1.7 0 0 Z " fill="#CDB07D" transform="translate(25,64)"/>
<path d="M0 0 C1.67542976 0.28604898 3.34385343 0.61781233 5 1 C4.67 2.32 4.34 3.64 4 5 C2.35 3.68 0.7 2.36 -1 1 C-0.67 0.67 -0.34 0.34 0 0 Z " fill="#1D2231" transform="translate(16,46)"/>
<path d="M0 0 C-3.5486135 2.36574234 -4.5764525 2.10865265 -8.6875 1.625 C-10.17830078 1.45871094 -10.17830078 1.45871094 -11.69921875 1.2890625 C-12.45847656 1.19367188 -13.21773437 1.09828125 -14 1 C-14 0.67 -14 0.34 -14 0 C-12.2300132 -0.19532961 -10.45895721 -0.38098882 -8.6875 -0.5625 C-7.70136719 -0.66691406 -6.71523438 -0.77132812 -5.69921875 -0.87890625 C-3 -1 -3 -1 0 0 Z " fill="#1F283E" transform="translate(56,79)"/>
<path d="M0 0 C0.99 0.33 1.98 0.66 3 1 C2.67 2.65 2.34 4.3 2 6 C1.34 6 0.68 6 0 6 C-0.38218767 4.34385343 -0.71395102 2.67542976 -1 1 C-0.67 0.67 -0.34 0.34 0 0 Z " fill="#3E8297" transform="translate(80,67)"/>
<path d="M0 0 C0.66 0 1.32 0 2 0 C2 0.99 2 1.98 2 3 C2.99 2.67 3.98 2.34 5 2 C4.67 3.32 4.34 4.64 4 6 C2.68 5.67 1.36 5.34 0 5 C0 3.35 0 1.7 0 0 Z " fill="#5E7E7E" transform="translate(72,59)"/>
</svg>
